<svg aria-hidden="true" style="width:0;height:0;position:absolute;overflow:hidden" xmlns="http://www.w3.org/2000/svg"><defs><symbol id="icon-search" viewBox="0 0 32 32"><path d="M12.844 3.969c-1.361.193-2.652.62-3.875 1.281-4.003 2.582-5.597 6.238-4.781 10.969 1.052 3.969 3.563 6.479 7.531 7.531 2.721.574 5.263.137 7.625-1.313a.156.156 0 0 1 .188 0l.029.03a317.301 317.301 0 0 0 5.283 5.22c.75.375 1.5.375 2.25 0 .935-.783 1.133-1.731.594-2.844l-5.281-5.406a10.64 10.64 0 0 0 1.219-2.719c.746-2.847.371-5.535-1.125-8.063-2.308-3.388-5.527-4.951-9.656-4.688zm1.062 3c2.994.157 5.15 1.574 6.469 4.25 1.017 2.694.621 5.152-1.188 7.375-2.275 2.295-4.931 2.889-7.969 1.781-3.162-1.604-4.526-4.177-4.094-7.719.719-2.969 2.563-4.813 5.531-5.531-.249.017.179-.038.608-.091l.642-.065z"/></symbol></defs></svg>