<svg aria-hidden="true" style="position: absolute; width: 0; height: 0; overflow: hidden;" version="1.1" xmlns="http://www.w3.org/2000/svg" xmlns:xlink="http://www.w3.org/1999/xlink">
<defs>
<symbol id="icon-search" viewBox="0 0 32 32">
<path d="M12.844 3.969c-1.361 0.193-2.652 0.62-3.875 1.281-4.003 2.582-5.597 6.238-4.781 10.969 1.052 3.969 3.563 6.479 7.531 7.531 2.721 0.574 5.263 0.137 7.625-1.313 0.063-0.042 0.125-0.042 0.188 0l0.029 0.030c1.711 1.731 3.442 3.442 5.283 5.22 0.75 0.375 1.5 0.375 2.25 0 0.935-0.783 1.133-1.731 0.594-2.844l-5.281-5.406c0.533-0.847 0.939-1.753 1.219-2.719 0.746-2.847 0.371-5.535-1.125-8.063-2.308-3.388-5.527-4.951-9.656-4.688zM13.906 6.969c2.994 0.157 5.15 1.574 6.469 4.25 1.017 2.694 0.621 5.152-1.188 7.375-2.275 2.295-4.931 2.889-7.969 1.781-3.162-1.604-4.526-4.177-4.094-7.719 0.719-2.969 2.563-4.813 5.531-5.531-0.249 0.017 0.179-0.038 0.608-0.091l0.642-0.065z"></path>
</symbol>
</defs>
</svg>